<svg id="Layer_1" data-name="Layer 1" xmlns="http://www.w3.org/2000/svg" viewBox="0 0 276.26 303.84"><defs><style>.cls-1{fill:#b81e6f;}.cls-10,.cls-2,.cls-5,.cls-7,.cls-9{fill:none;stroke-miterlimit:10;}.cls-2{stroke:#b81e6f;stroke-width:13px;}.cls-3{opacity:0.5;}.cls-4{fill:#ef4423;}.cls-5{stroke:#ef4423;stroke-width:8px;}.cls-6{opacity:0.61;}.cls-10,.cls-7,.cls-9{stroke:#fff;}.cls-7{stroke-width:3px;}.cls-8{fill:#fff;}.cls-9{stroke-width:2px;}</style></defs><path class="cls-1" d="M265.45,265.93a25.75,25.75,0,0,1-22.25,38.39L37,305.74a25.74,25.74,0,0,1-22.36-38.8L68.75,175c26.93,30.23,79.08-10,105.75-6.38,24,3.3,33.27,12.35,46.48,18.42Z" transform="translate(-4.54 -8.39)"/><path class="cls-2" d="M68.75,175,14.64,266.94A25.74,25.74,0,0,0,37,305.74l206.2-1.42a25.75,25.75,0,0,0,22.25-38.39L221,187.05l-44.63-79.17a25.79,25.79,0,0,1-3.32-12l-1.36-59.2a25.65,25.65,0,0,0-6-15.94,174.82,174.82,0,0,1-25.75,1.79,174.28,174.28,0,0,1-25.45-1.75,25.66,25.66,0,0,0-6,16.5v63.24a25.76,25.76,0,0,1-3.56,13.06Z" transform="translate(-4.54 -8.39)"/><path class="cls-2" d="M68.75,175c26.93,30.23,79.08-10,105.75-6.38,24,3.3,33.27,12.35,46.48,18.42" transform="translate(-4.54 -8.39)"/><g class="cls-3"><path class="cls-4" d="M273.45,258.93a25.75,25.75,0,0,1-22.25,38.39L45,298.74a25.74,25.74,0,0,1-22.36-38.8L76.75,168c26.93,30.23,79.08-10,105.75-6.38,24,3.3,33.27,12.35,46.48,18.42Z" transform="translate(-4.54 -8.39)"/><path class="cls-5" d="M76.75,168,22.64,259.94A25.74,25.74,0,0,0,45,298.74l206.2-1.42a25.75,25.75,0,0,0,22.25-38.39L229,180.05l-44.63-79.17a25.79,25.79,0,0,1-3.32-12l-1.36-59.2a25.65,25.65,0,0,0-6-15.94,174.82,174.82,0,0,1-25.75,1.79,174.28,174.28,0,0,1-25.45-1.75,25.66,25.66,0,0,0-6,16.5V93.47a25.76,25.76,0,0,1-3.56,13.06Z" transform="translate(-4.54 -8.39)"/><path class="cls-5" d="M76.75,168c26.93,30.23,79.08-10,105.75-6.38,24,3.3,33.27,12.35,46.48,18.42" transform="translate(-4.54 -8.39)"/></g><g class="cls-6"><path class="cls-5" d="M72.75,167,18.64,258.94A25.74,25.74,0,0,0,41,297.74l206.2-1.42a25.75,25.75,0,0,0,22.25-38.39L225,179.05,180.35,99.88a25.79,25.79,0,0,1-3.32-12l-1.36-59.2a25.65,25.65,0,0,0-6-15.94,174.82,174.82,0,0,1-25.75,1.79,174.28,174.28,0,0,1-25.45-1.75,25.66,25.66,0,0,0-6,16.5V92.47a25.76,25.76,0,0,1-3.56,13.06Z" transform="translate(-4.54 -8.39)"/><path class="cls-5" d="M72.75,167c26.93,30.23,79.08-10,105.75-6.38,24,3.3,33.27,12.35,46.48,18.42" transform="translate(-4.54 -8.39)"/></g><circle class="cls-7" cx="190.72" cy="192.82" r="14.48"/><circle class="cls-7" cx="133.17" cy="228.43" r="5.23"/><circle class="cls-8" cx="210.48" cy="272.95" r="11.04"/><circle class="cls-8" cx="183.68" cy="178.34" r="7.04"/><circle class="cls-8" cx="66.92" cy="252.96" r="7.95"/><circle class="cls-7" cx="115.38" cy="169.93" r="30.95"/><circle class="cls-9" cx="112.45" cy="167" r="33.89"/><circle class="cls-9" cx="181.48" cy="176.15" r="9.24"/><circle class="cls-10" cx="179.29" cy="173.95" r="11.43"/><circle class="cls-9" cx="188.72" cy="190.82" r="16.48"/><circle class="cls-10" cx="187.2" cy="189.3" r="18"/><circle class="cls-10" cx="110.1" cy="164.65" r="36.24"/><circle class="cls-9" cx="131.25" cy="226.5" r="7.16"/><circle class="cls-10" cx="129.75" cy="225" r="8.66"/><circle class="cls-9" cx="64.93" cy="250.96" r="9.94"/><circle class="cls-10" cx="63.06" cy="249.1" r="11.81"/><circle class="cls-9" cx="208.09" cy="270.55" r="13.43"/><circle class="cls-10" cx="206.12" cy="268.58" r="15.4"/></svg>