<svg id="Layer_1" data-name="Layer 1" xmlns="http://www.w3.org/2000/svg" viewBox="0 0 537.62 544.85"><defs><style>.cls-1,.cls-4,.cls-5{fill:#ef4423;}.cls-1{opacity:0.45;}.cls-2{fill:#b81e6f;}.cls-3,.cls-5{opacity:0.63;}.cls-6,.cls-7,.cls-8,.cls-9{fill:none;stroke-miterlimit:10;}.cls-6{stroke:#b81e6f;stroke-width:13px;}.cls-7,.cls-8,.cls-9{stroke:#fff;}.cls-7{stroke-width:3px;}.cls-8{stroke-width:2px;}</style></defs><polygon class="cls-1" points="22.51 280.9 83.72 112.71 238.73 23.22 414.99 54.3 530.04 191.41 530.04 370.39 414.99 507.49 238.73 538.57 83.72 449.08 22.51 280.9"/><path class="cls-2" d="M527.38,398.35h0l-6.56,5.54a2.7,2.7,0,0,1-4.29-2.94l4.18-13.4,14.8-49.45a2.75,2.75,0,0,0,.11-1L532.88,303a1.7,1.7,0,0,1,0-.22V278.71a2.73,2.73,0,0,0-2.7-2.75h-3.3a2.73,2.73,0,0,1-2.7-2.75v-2.6a2.69,2.69,0,0,0-4.35-2.17l-6.21,4.95a2.73,2.73,0,0,1-1.27.55l-12.29,1.84a2.69,2.69,0,0,1-2.21-.69l-14.49-13.44a2.57,2.57,0,0,1-.39-.47l-18.3-26.75a2.84,2.84,0,0,1-.42-2.14l2.68-13a2.82,2.82,0,0,0-.31-1.95l-7.75-13.56a2.78,2.78,0,0,1-.35-1.62l1.27-15.19a2.74,2.74,0,0,1,.33-1.12L467,173.42a2.85,2.85,0,0,0,.29-1.92l-3.12-14.93a2.77,2.77,0,0,1,.06-1.4l1-3.2a2.7,2.7,0,0,1,3.6-1.71l2.54,1.06a2.67,2.67,0,0,0,3.47-1.4l1.49-3.33a2.67,2.67,0,0,1,3.08-1.54l9.91,2.39a2.64,2.64,0,0,1,1.72,1.33l3.17,5.7a2.69,2.69,0,0,0,2.35,1.4,2.76,2.76,0,0,0,2.08-4.51l-.35-.42,2-1.65C519,172.57,536,194.12,543.31,203.34c2.37,3,.62,141.89.12,174C543.36,381.42,527.89,397.84,527.38,398.35Z" transform="translate(-18.73 -12.1)"/><path class="cls-2" d="M500.22,149.29l-2,1.65-22.94-28.28a2.66,2.66,0,0,0-3-.81L466.63,124a2.76,2.76,0,0,0-1.52,3.65L470,139.23a2.76,2.76,0,0,1-2,3.79l-4.32.8L457,145.23a2.64,2.64,0,0,1-2.71-1l-12.54-17.11a2.76,2.76,0,0,1,1.83-4.37l2.36-.29a2.77,2.77,0,0,0,1.16-5l-8.78-5.9a2.78,2.78,0,0,1-.61-4l3.12-3.92a2.78,2.78,0,0,0,.46-2.58l-4.5-14a2.71,2.71,0,0,0-2.56-1.9h-9.06a3,3,0,0,1-.78-.11,2.77,2.77,0,0,1-.71-.34L400.08,58.72c-.7-.78,17.05,1.37,30.18,9.29C437.62,72.44,471,113,500.22,149.29Z" transform="translate(-18.73 -12.1)"/><path class="cls-2" d="M414.26,316.39v14.72a1.67,1.67,0,0,1-.45,1.13l-19.08,19.94a1.69,1.69,0,0,0-.4.73l-9.08,37a1.63,1.63,0,0,1-1,1.14L354.11,401.6a1.6,1.6,0,0,0-1.05,1.26l-2.35,14.39a1.65,1.65,0,0,1-.56,1l-10.91,9.1a1.8,1.8,0,0,0-.2.19L330,438.28a1.76,1.76,0,0,1-.6.45l-8.12,3.4a1.52,1.52,0,0,0-.66.52l-7,9.33a1.72,1.72,0,0,1-.81.57l-9.35,2.82a1.63,1.63,0,0,0-1,.88l-3.36,7.49a1.57,1.57,0,0,1-.44.58l-7.19,5.93a1.62,1.62,0,0,0,1,2.87,1.6,1.6,0,0,1,1.59,1.61,1.62,1.62,0,0,1-.16.7l-5.51,11.72a1.64,1.64,0,0,0,.13,1.63l7,10.15a1.62,1.62,0,0,1-1.65,2.51L275,497.16a1.65,1.65,0,0,1-.89-.56L257.73,476a1.64,1.64,0,0,1,.28-2.31l7.86-6a1.63,1.63,0,0,0,.32-2.25L258.61,455a1.55,1.55,0,0,1-.31-1.06l5.12-79.33a1.61,1.61,0,0,0-.61-1.38l-27.26-21.6a1.64,1.64,0,0,1-.4-.47L212.8,311.83a1.61,1.61,0,0,1,0-1.59l16.45-29.46a1.64,1.64,0,0,0,.16-1.19l-4.74-19.32a1.58,1.58,0,0,0-2.84-.53l-4.17,6.07a1.57,1.57,0,0,1-2.47.15l-23.88-26.8a1.66,1.66,0,0,0-.88-.5l-17.49-3.37a1.59,1.59,0,0,1-1.29-1.59v-9.21a1.59,1.59,0,0,0-1.06-1.51l-33.42-12a1.62,1.62,0,0,1-1-1.44l-1.57-29.74a1.58,1.58,0,0,0-3.1-.37l-1,3.6a1.58,1.58,0,0,1-3.11-.36l-2-36.82a1.65,1.65,0,0,1,.32-1.07l26.82-36.08a1.6,1.6,0,0,1,1.27-.65H163a1.59,1.59,0,0,0,1.57-1.41L167.44,83a1.66,1.66,0,0,1,1-1.31L242.65,49l.91,2.15L248.84,56a1.67,1.67,0,0,1-.61,2.82,1.67,1.67,0,0,0,.42,3.25l2,.08a1.62,1.62,0,0,0,1.58-1l2.37-5.91a1.68,1.68,0,0,1,1.17-1l1.34-.29a1.64,1.64,0,0,1,2,1.49l.53,6.25a1.63,1.63,0,0,0,2.16,1.43l4.4-1.56a1.66,1.66,0,0,0,1.09-1.57V57.14a1.65,1.65,0,0,1,2-1.63l7.29,1.62a1.52,1.52,0,0,0,.6,0l1.82-.29a1.67,1.67,0,0,0,.56-3.08l-1.62-.93a1.67,1.67,0,0,1-.79-1.81l1.16-5.23.75-2.69,3.21.93c.15,0,1.94.14,2.09.17l70.72,14.14a1.62,1.62,0,0,1,.49,3l-13.95,7.9a1.63,1.63,0,0,0-.81,1.58l.67,6.84a1.59,1.59,0,0,1-2.2,1.65L314.09,68.41a1.62,1.62,0,0,1-.79-.74l-6.58-12.94a1.6,1.6,0,0,0-1.45-.87l-12.35.36a1.62,1.62,0,0,0-.84,3l11.51,7.93a1.63,1.63,0,0,1-.12,2.75l-10.65,6A1.64,1.64,0,0,0,292,75l-14.73-4.84a2.15,2.15,0,0,1-.44-3.78l2-1.35a2.16,2.16,0,0,0-.66-3.86l-2.83-.72a2.11,2.11,0,0,0-1.68.29l-5.25,3.57a2.13,2.13,0,0,1-.5.25l-6,2L237.72,74.8a2.12,2.12,0,0,0-1.24,1.11l-2.43,5.18a2.17,2.17,0,0,0,1.19,3l11.48,4.15A2.16,2.16,0,0,1,248,90.92l-.86,2.47a2.18,2.18,0,0,0,.78,2.47l3.39,2.4a2.1,2.1,0,0,0,3.3-1.76V94.31a2.16,2.16,0,0,1,.94-1.79l9.42-6.3a2.16,2.16,0,0,0-.12-3.65,2.17,2.17,0,0,1-.74-3L267.56,74a2.06,2.06,0,0,1,1.78-1h6.15a2.09,2.09,0,0,1,1.66.82l4.24,5.55L283.6,82a2.08,2.08,0,0,0,3.43-.35L292,75a1.64,1.64,0,0,0,.65,1.58l25,18a1.64,1.64,0,0,1,.11,2.55l-8.46,7.33a1.57,1.57,0,0,1-1,.38l-12.23.47a1.59,1.59,0,0,0-1.44,1.1l-1.91,5.75a1.63,1.63,0,0,0,1.14,2.1l5.95,1.39a1.63,1.63,0,0,1,.09,3.13l-15.43,4.59a1.64,1.64,0,0,1-.28.07l-7.67.81a1.63,1.63,0,0,0-1.3,2.23l2.12,5.23a1.63,1.63,0,0,1-1.15,2.2l-15.09,3.16A1.6,1.6,0,0,0,260,138l-6.74,14.23a1.66,1.66,0,0,1-.68.71l-19.12,10.49a1.65,1.65,0,0,0-.84,1.32l-1.36,19.91a1.58,1.58,0,0,1-2.06,1.42L222,183.74a1.58,1.58,0,0,1-1-1l-3.06-9.35a1.59,1.59,0,0,0-1.4-1.1l-14.25-1a1.66,1.66,0,0,0-.66.1l-7.9,3-.25.08L175.84,178a1.59,1.59,0,0,0-1.26,1.28l-1.84,9.83a1.72,1.72,0,0,1-.17.48l-4.77,8.76a1.57,1.57,0,0,0-.14,1.22l2.6,9.28a1.59,1.59,0,0,0,1.61,1.17l7.25-.42a1.56,1.56,0,0,0,1.3-.83l5.85-11a1.59,1.59,0,0,1,1.58-.84l14.89,1.78a1.62,1.62,0,0,1,1.36,2l-4.5,18.78a1.65,1.65,0,0,0,.81,1.83l11.08,5.86a1.63,1.63,0,0,1,.86,1.44v18.66a1.6,1.6,0,0,0,1.58,1.61h12.81a1.55,1.55,0,0,1,1.21.58l3.41,4.17a1.57,1.57,0,0,0,2.52-.11l10.21-14.91a1.57,1.57,0,0,1,1.64-.65L282,246.16a1.66,1.66,0,0,0,.44,0l16.84-1a1.59,1.59,0,0,1,1.18.44l17.39,16.7a1.53,1.53,0,0,0,.87.43l17.09,2.49a1.59,1.59,0,0,1,1.07.66l17.59,25.3a1.57,1.57,0,0,0,.71.57l58,23.12A1.6,1.6,0,0,1,414.26,316.39Z" transform="translate(-18.73 -12.1)"/><path class="cls-2" d="M243.59,532.29l11.41,1a1.46,1.46,0,0,0,1.13-.39l3-2.85a1.46,1.46,0,0,1,2,0l1.59,1.54A1.49,1.49,0,0,0,264,532l4.56-.75.23,0H283a1.46,1.46,0,0,0,.88-.3l1.37-1a1.46,1.46,0,0,1,1.93.14l1.77,1.8a1.49,1.49,0,0,0,1.1.44l1.41-.06a1.5,1.5,0,0,0,1.21-2.26l-2-3.48a1.46,1.46,0,0,1-.21-.82l.12-2.83a1.51,1.51,0,0,1,.93-1.34l8.59-3.43a1.41,1.41,0,0,1,.54-.11h.94a1.51,1.51,0,0,1,.84,2.74l-3.68,2.62a1.52,1.52,0,0,0,0,2.44l6.18,4.63a1.51,1.51,0,0,1,.17,2.27l-4,4.1a1.46,1.46,0,0,1-.78.42l-40.91,7.61a1.46,1.46,0,0,1-1-.19l-15.6-9.49a1.51,1.51,0,0,1,.65-2.79h.23Z" transform="translate(-18.73 -12.1)"/><g class="cls-3"><path class="cls-4" d="M532.38,396.31h0l-6.56,5.54a2.7,2.7,0,0,1-4.29-2.94l4.18-13.39,14.8-49.45a2.79,2.79,0,0,0,.11-1L537.88,301a1.85,1.85,0,0,1,0-.23V276.67a2.73,2.73,0,0,0-2.7-2.75h-3.3a2.73,2.73,0,0,1-2.7-2.75v-2.59a2.69,2.69,0,0,0-4.35-2.17l-6.21,4.95a2.84,2.84,0,0,1-1.27.55l-12.29,1.83a2.69,2.69,0,0,1-2.21-.69l-14.49-13.44a2.88,2.88,0,0,1-.39-.46l-18.3-26.76a2.83,2.83,0,0,1-.42-2.14l2.68-13a2.8,2.8,0,0,0-.31-1.94l-7.75-13.57a2.78,2.78,0,0,1-.35-1.62l1.27-15.19a2.79,2.79,0,0,1,.33-1.12L472,171.39a2.88,2.88,0,0,0,.29-1.93l-3.12-14.93a2.73,2.73,0,0,1,.06-1.39l1-3.2a2.68,2.68,0,0,1,3.6-1.71l2.54,1.06a2.68,2.68,0,0,0,3.47-1.41l1.49-3.33a2.69,2.69,0,0,1,3.08-1.54l9.91,2.39a2.71,2.71,0,0,1,1.72,1.33l3.17,5.7a2.69,2.69,0,0,0,2.35,1.4,2.76,2.76,0,0,0,2.08-4.5l-.35-.43,2-1.65C524,170.53,541,192.08,548.31,201.3c2.37,3,.62,141.9.12,174C548.36,379.38,532.89,395.8,532.38,396.31Z" transform="translate(-18.73 -12.1)"/><path class="cls-4" d="M505.22,147.25l-2,1.65-22.94-28.28a2.68,2.68,0,0,0-3-.81L471.63,122a2.76,2.76,0,0,0-1.52,3.65L475,137.2a2.75,2.75,0,0,1-2,3.78l-4.32.8L462,143.19a2.65,2.65,0,0,1-2.71-1L446.74,125a2.76,2.76,0,0,1,1.83-4.37l2.36-.29a2.76,2.76,0,0,0,1.16-5l-8.78-5.91a2.77,2.77,0,0,1-.61-4l3.12-3.92a2.81,2.81,0,0,0,.46-2.59l-4.5-14A2.7,2.7,0,0,0,439.22,83h-9.06a3,3,0,0,1-.78-.11,3.11,3.11,0,0,1-.71-.35L405.08,56.68c-.7-.77,17.05,1.37,30.18,9.29C442.62,70.4,476,110.93,505.22,147.25Z" transform="translate(-18.73 -12.1)"/></g><g class="cls-3"><path class="cls-4" d="M419.26,314.35v14.72a1.65,1.65,0,0,1-.45,1.13l-19.08,19.94a1.72,1.72,0,0,0-.4.74l-9.08,37a1.61,1.61,0,0,1-1,1.14l-30.12,10.56a1.62,1.62,0,0,0-1.05,1.27l-2.35,14.39a1.65,1.65,0,0,1-.56,1l-10.91,9.1a1.8,1.8,0,0,0-.2.19L335,436.24a1.64,1.64,0,0,1-.6.45l-8.12,3.4a1.6,1.6,0,0,0-.66.52l-7,9.33a1.65,1.65,0,0,1-.81.57l-9.35,2.82a1.61,1.61,0,0,0-1,.89l-3.36,7.48a1.49,1.49,0,0,1-.44.58l-7.19,5.93a1.62,1.62,0,0,0,1,2.87,1.6,1.6,0,0,1,1.59,1.61,1.66,1.66,0,0,1-.16.71l-5.51,11.71a1.64,1.64,0,0,0,.13,1.63l7,10.15a1.61,1.61,0,0,1-1.65,2.51L280,495.12a1.59,1.59,0,0,1-.89-.56L262.73,474a1.65,1.65,0,0,1,.28-2.32l7.86-6a1.64,1.64,0,0,0,.32-2.26L263.61,453a1.55,1.55,0,0,1-.31-1.06l5.12-79.33a1.58,1.58,0,0,0-.61-1.37l-27.26-21.61a1.52,1.52,0,0,1-.4-.47L217.8,309.8a1.63,1.63,0,0,1,0-1.6l16.45-29.46a1.64,1.64,0,0,0,.16-1.19l-4.74-19.32a1.58,1.58,0,0,0-2.84-.53l-4.17,6.07a1.56,1.56,0,0,1-2.47.15l-23.88-26.8a1.64,1.64,0,0,0-.88-.49l-17.49-3.38a1.59,1.59,0,0,1-1.29-1.58v-9.21a1.6,1.6,0,0,0-1.06-1.52l-33.42-12a1.59,1.59,0,0,1-1-1.44l-1.57-29.74a1.58,1.58,0,0,0-3.1-.36l-1,3.59a1.58,1.58,0,0,1-3.11-.35l-2.05-36.82a1.62,1.62,0,0,1,.32-1.07l26.82-36.09a1.59,1.59,0,0,1,1.27-.64H168a1.59,1.59,0,0,0,1.57-1.42l2.92-23.67a1.63,1.63,0,0,1,1-1.3l74.22-32.69.91,2.15,5.28,4.85a1.68,1.68,0,0,1,.54,1.23,1.65,1.65,0,0,1-1.15,1.59,1.67,1.67,0,0,0,.42,3.25l2,.08a1.62,1.62,0,0,0,1.58-1l2.37-5.91a1.67,1.67,0,0,1,1.17-1l1.34-.3a1.65,1.65,0,0,1,2,1.49l.53,6.25A1.63,1.63,0,0,0,266.81,61l4.4-1.56a1.65,1.65,0,0,0,1.09-1.57V55.1a1.65,1.65,0,0,1,2-1.63l7.29,1.62a1.52,1.52,0,0,0,.6,0l1.82-.28a1.67,1.67,0,0,0,.56-3.09l-1.62-.93a1.67,1.67,0,0,1-.79-1.81l1.16-5.23.75-2.68,3.21.92c.15,0,1.94.14,2.09.18l70.72,14.13a1.63,1.63,0,0,1,.49,3l-13.95,7.89a1.64,1.64,0,0,0-.81,1.58l.67,6.84a1.59,1.59,0,0,1-2.2,1.65L319.09,66.38a1.69,1.69,0,0,1-.79-.75L311.72,52.7a1.61,1.61,0,0,0-1.45-.88l-12.35.37a1.62,1.62,0,0,0-.84,3l11.51,7.94a1.63,1.63,0,0,1-.12,2.75l-10.65,6A1.66,1.66,0,0,0,297,73l-14.73-4.84a2.16,2.16,0,0,1-.44-3.79l2-1.35a2.16,2.16,0,0,0-.66-3.86l-2.83-.72a2.08,2.08,0,0,0-1.68.3l-5.25,3.56a2.65,2.65,0,0,1-.5.26l-6,2-24.19,8.21a2.15,2.15,0,0,0-1.24,1.11l-2.43,5.19A2.16,2.16,0,0,0,240.24,82l11.48,4.16A2.15,2.15,0,0,1,253,88.89l-.86,2.46a2.19,2.19,0,0,0,.78,2.48l3.39,2.39a2.1,2.1,0,0,0,3.3-1.75V92.28a2.16,2.16,0,0,1,.94-1.8l9.42-6.3a2.16,2.16,0,0,0-.12-3.65,2.17,2.17,0,0,1-.74-3l3.45-5.6a2.07,2.07,0,0,1,1.78-1h6.15a2.09,2.09,0,0,1,1.66.82l4.24,5.55,2.21,2.63a2.08,2.08,0,0,0,3.43-.34L297,73a1.61,1.61,0,0,0,.65,1.57l25,18a1.64,1.64,0,0,1,.11,2.55l-8.46,7.33a1.51,1.51,0,0,1-1,.38l-12.23.47a1.6,1.6,0,0,0-1.44,1.1l-1.91,5.75a1.63,1.63,0,0,0,1.14,2.1l5.95,1.4a1.62,1.62,0,0,1,.09,3.12l-15.43,4.6-.28.06-7.67.81a1.63,1.63,0,0,0-1.3,2.23l2.12,5.23a1.62,1.62,0,0,1-1.15,2.2l-15.09,3.17a1.56,1.56,0,0,0-1.11.87l-6.74,14.23a1.61,1.61,0,0,1-.68.71l-19.12,10.5a1.62,1.62,0,0,0-.84,1.31l-1.36,19.91a1.59,1.59,0,0,1-2.06,1.43L227,181.71a1.6,1.6,0,0,1-1-1l-3.06-9.35a1.59,1.59,0,0,0-1.4-1.1l-14.25-1a1.66,1.66,0,0,0-.66.1l-7.9,3-.25.08-17.6,3.48a1.59,1.59,0,0,0-1.26,1.28l-1.84,9.83a1.62,1.62,0,0,1-.17.48l-4.77,8.76a1.58,1.58,0,0,0-.14,1.22l2.6,9.28a1.58,1.58,0,0,0,1.61,1.17l7.25-.41a1.57,1.57,0,0,0,1.3-.84l5.85-11a1.56,1.56,0,0,1,1.58-.83l14.89,1.78a1.61,1.61,0,0,1,1.36,2l-4.5,18.79a1.64,1.64,0,0,0,.81,1.82l11.08,5.87a1.6,1.6,0,0,1,.86,1.43v18.66a1.6,1.6,0,0,0,1.58,1.61h12.81a1.58,1.58,0,0,1,1.21.58l3.41,4.18a1.58,1.58,0,0,0,2.52-.11l10.21-14.92a1.57,1.57,0,0,1,1.64-.65L287,244.12a1.66,1.66,0,0,0,.44,0l16.84-1a1.63,1.63,0,0,1,1.18.44l17.39,16.71a1.58,1.58,0,0,0,.87.42l17.09,2.49a1.59,1.59,0,0,1,1.07.66l17.59,25.3a1.51,1.51,0,0,0,.71.57l58,23.12A1.61,1.61,0,0,1,419.26,314.35Z" transform="translate(-18.73 -12.1)"/></g><path class="cls-5" d="M248.59,530.26l11.41,1a1.42,1.42,0,0,0,1.13-.39l3-2.85a1.46,1.46,0,0,1,2,0l1.59,1.54A1.49,1.49,0,0,0,269,530l4.56-.75.23,0H288a1.4,1.4,0,0,0,.88-.3l1.37-1a1.46,1.46,0,0,1,1.93.14l1.77,1.8a1.42,1.42,0,0,0,1.1.44l1.41-.05a1.51,1.51,0,0,0,1.21-2.27l-2-3.47a1.51,1.51,0,0,1-.21-.83l.12-2.83a1.48,1.48,0,0,1,.93-1.33l8.59-3.44a1.4,1.4,0,0,1,.54-.1h.94a1.5,1.5,0,0,1,.84,2.73l-3.68,2.62a1.52,1.52,0,0,0,0,2.44l6.18,4.63a1.53,1.53,0,0,1,.17,2.28l-4,4.1a1.44,1.44,0,0,1-.78.41l-40.91,7.61a1.4,1.4,0,0,1-1-.19L247.71,533a1.51,1.51,0,0,1,.65-2.79h.23Z" transform="translate(-18.73 -12.1)"/><path class="cls-6" d="M45.38,281.6,98.3,136.21A33.36,33.36,0,0,1,113,118.75L247,41.39a33.32,33.32,0,0,1,22.45-4L421.77,64.3a33.29,33.29,0,0,1,19.74,11.39L541,194.22a33.34,33.34,0,0,1,7.79,21.42V370.36A33.34,33.34,0,0,1,541,391.78L441.51,510.31a33.29,33.29,0,0,1-19.74,11.39L269.4,548.57a33.32,33.32,0,0,1-22.45-4L113,467.25A33.36,33.36,0,0,1,98.3,449.79L45.38,304.4A33.45,33.45,0,0,1,45.38,281.6Z" transform="translate(-18.73 -12.1)"/><path class="cls-7" d="M38.91,281.6,93.34,132.05A33.32,33.32,0,0,1,108,114.59L245.83,35a33.29,33.29,0,0,1,22.44-4L425,58.69a33.32,33.32,0,0,1,19.74,11.39L547.05,192a33.33,33.33,0,0,1,7.8,21.42V372.58a33.33,33.33,0,0,1-7.8,21.42L444.75,515.92A33.32,33.32,0,0,1,425,527.31L268.27,555a33.29,33.29,0,0,1-22.44-4L108,471.41A33.32,33.32,0,0,1,93.34,454L38.91,304.4A33.33,33.33,0,0,1,38.91,281.6Z" transform="translate(-18.73 -12.1)"/><path class="cls-8" d="M29,276.56,84.6,123.71a33.36,33.36,0,0,1,14.65-17.46L240.12,24.92a33.31,33.31,0,0,1,22.45-4L422.76,49.21A33.34,33.34,0,0,1,442.5,60.6L547.05,185.21a33.29,33.29,0,0,1,7.8,21.42V369.29a33.33,33.33,0,0,1-7.8,21.42L442.5,515.31a33.36,33.36,0,0,1-19.74,11.4L262.57,555a33.36,33.36,0,0,1-22.45-4L99.25,469.67A33.34,33.34,0,0,1,84.6,452.2L29,299.35A33.31,33.31,0,0,1,29,276.56Z" transform="translate(-18.73 -12.1)"/><path class="cls-9" d="M21.24,272.64,77.8,117.22A33.36,33.36,0,0,1,92.45,99.76L235.68,17.07a33.32,33.32,0,0,1,22.45-4L421,41.83a33.25,33.25,0,0,1,19.74,11.4L547.05,179.92a33.29,33.29,0,0,1,7.8,21.42V366.73a33.28,33.28,0,0,1-7.8,21.41L440.74,514.84A33.29,33.29,0,0,1,421,526.23L258.13,555a33.37,33.37,0,0,1-22.45-4L92.45,468.3A33.32,33.32,0,0,1,77.8,450.84L21.24,295.43A33.31,33.31,0,0,1,21.24,272.64Z" transform="translate(-18.73 -12.1)"/></svg>